<svg xmlns="http://www.w3.org/2000/svg" width="20" height="20" viewBox="0 0 20 20" fill="none">
    <path fill-rule="evenodd" clip-rule="evenodd" d="M2.0955 9.77354C6.38958 7.94472 9.24822 6.72951 10.6837 6.13995C14.7692 4.46754 15.628 4.17878 16.1801 4.16675C16.3028 4.16675 16.5727 4.19081 16.7567 4.33519C16.904 4.45551 16.9408 4.61192 16.9653 4.73224C16.9898 4.85256 17.0144 5.10522 16.9898 5.29773C16.769 7.58376 15.812 13.1304 15.3213 15.6811C15.1127 16.764 14.7078 17.1249 14.3152 17.161C13.4564 17.2332 12.8062 16.6076 11.9842 16.0782C10.6837 15.248 9.95981 14.7306 8.69612 13.9125C7.23613 12.974 8.18083 12.4566 9.01511 11.6144C9.23595 11.3978 13.0025 8.02894 13.0761 7.72814C13.0884 7.69205 13.0884 7.54767 13.0025 7.47548C12.9166 7.40329 12.7939 7.42735 12.6958 7.45141C12.5608 7.47548 10.4996 8.82303 6.48773 11.482C5.89883 11.8791 5.37127 12.0716 4.89279 12.0596C4.36523 12.0475 3.35919 11.7708 2.59852 11.5302C1.67836 11.2414 0.942231 11.085 1.00357 10.5797C1.04038 10.315 1.40845 10.0503 2.0955 9.77354Z" fill="#F4F6F5"/>
</svg>