<svg xmlns="http://www.w3.org/2000/svg" width="20" height="20" viewBox="0 0 20 20" fill="none">
    <path fill-rule="evenodd" clip-rule="evenodd" d="M9.3777 15.7879H10.5233C10.5233 15.7879 10.8693 15.7501 11.0462 15.5616C11.2088 15.3882 11.2036 15.063 11.2036 15.063C11.2036 15.063 11.1812 13.54 11.8945 13.3157C12.598 13.0947 13.5011 14.7876 14.4582 15.4387C15.1821 15.9311 15.7322 15.8233 15.7322 15.8233L18.2918 15.7879C18.2918 15.7879 19.6307 15.7061 18.9958 14.6631C18.9438 14.5779 18.6259 13.8915 17.0926 12.4814C15.4875 11.0055 15.7027 11.2443 17.636 8.69136C18.8134 7.13662 19.284 6.18749 19.1369 5.781C18.9968 5.39371 18.1308 5.49601 18.1308 5.49601L15.2488 5.51367C15.2488 5.51367 15.035 5.48485 14.8767 5.57873C14.7218 5.67054 14.6224 5.88505 14.6224 5.88505C14.6224 5.88505 14.1661 7.08807 13.558 8.11135C12.2747 10.2702 11.7615 10.3845 11.5517 10.2502C11.0637 9.93777 11.1856 8.99521 11.1856 8.32539C11.1856 6.2331 11.5059 5.36074 10.5619 5.13493C10.2486 5.06004 10.0179 5.01049 9.21666 5.0024C8.18829 4.99203 7.31811 5.00554 6.82528 5.24473C6.49741 5.4038 6.24445 5.7582 6.3986 5.7786C6.58913 5.80374 7.0204 5.89394 7.24907 6.20221C7.54448 6.6004 7.53415 7.49429 7.53415 7.49429C7.53415 7.49429 7.7039 9.95723 7.13784 10.2631C6.74942 10.4729 6.2165 10.0446 5.07238 8.08587C4.48628 7.08259 4.04359 5.97345 4.04359 5.97345C4.04359 5.97345 3.95835 5.76623 3.80609 5.65529C3.62143 5.52089 3.36341 5.47829 3.36341 5.47829L0.624713 5.49601C0.624713 5.49601 0.213685 5.50738 0.0626378 5.68451C-0.071739 5.84219 0.0519074 6.1679 0.0519074 6.1679C0.0519074 6.1679 2.19586 11.1376 4.62369 13.6421C6.85005 15.9386 9.3777 15.7879 9.3777 15.7879Z" fill="#F4F6F5"/>
</svg>