<svg width="114" height="44" viewBox="0 0 114 44" fill="none" xmlns="http://www.w3.org/2000/svg">
<path d="M45.7146 3.50645C50.8951 3.50645 55.1095 7.76028 55.1095 12.9915C55.1095 18.2227 50.8951 22.4756 45.7146 22.4756C40.5341 22.4756 36.3198 18.2218 36.3198 12.9905C36.3198 7.75929 40.5331 3.50546 45.7146 3.50546M45.7146 0C38.6082 0 32.8477 5.81638 32.8477 12.9905C32.8477 20.1647 38.6082 25.9825 45.7146 25.9825C52.821 25.9825 58.5821 20.1662 58.5821 12.9915C58.5821 5.81687 52.821 0.00099023 45.7146 0.00099023" fill="#3C3937"/>
<path d="M21.0546 12.9455C21.0546 13.5232 20.8849 14.088 20.567 14.5685C20.249 15.0489 19.7971 15.4233 19.2684 15.6444C18.7397 15.8655 18.1579 15.9234 17.5966 15.8106C17.0353 15.6979 16.5197 15.4197 16.1151 15.0111C15.7104 14.6026 15.4348 14.0821 15.3232 13.5154C15.2115 12.9487 15.2688 12.3613 15.4878 11.8275C15.7068 11.2937 16.0777 10.8375 16.5535 10.5165C17.0294 10.1955 17.5888 10.0242 18.1611 10.0242C18.9285 10.0242 19.6645 10.3319 20.2071 10.8798C20.7498 11.4276 21.0546 12.1707 21.0546 12.9455Z" fill="#3C3937"/>
<path d="M76.164 12.9455C76.164 13.5232 75.9943 14.088 75.6763 14.5685C75.3584 15.0489 74.9065 15.4233 74.3778 15.6444C73.8491 15.8655 73.2673 15.9234 72.706 15.8106C72.1447 15.6979 71.6291 15.4197 71.2245 15.0111C70.8198 14.6026 70.5442 14.0821 70.4326 13.5154C70.3209 12.9487 70.3782 12.3613 70.5972 11.8275C70.8162 11.2937 71.1871 10.8375 71.6629 10.5165C72.1388 10.1955 72.6982 10.0242 73.2705 10.0242C74.0379 10.0242 74.7739 10.3319 75.3165 10.8798C75.8591 11.4276 76.164 12.1707 76.164 12.9455Z" fill="#3C3937"/>
<path d="M2.95377 23.8768H0.517851C0.380462 23.8767 0.248745 23.8215 0.151643 23.7234C0.0545408 23.6253 -6.13689e-08 23.4922 0 23.3535V2.54187C-6.13689e-08 2.40317 0.0545408 2.27013 0.151643 2.17201C0.248745 2.07388 0.380462 2.01869 0.517851 2.01855H2.95377C3.09124 2.01855 3.22309 2.07369 3.3203 2.17183C3.4175 2.26997 3.47212 2.40308 3.47212 2.54187V23.3535C3.47212 23.4923 3.4175 23.6254 3.3203 23.7236C3.22309 23.8217 3.09124 23.8768 2.95377 23.8768Z" fill="#3C3937"/>
<path d="M110.11 3.77355V19.1393L91.9218 2.4702C91.6017 2.17674 91.1846 2.01461 90.7523 2.01563H89.6906C89.2306 2.01629 88.7897 2.20128 88.4646 2.52997C88.1396 2.85866 87.9571 3.30416 87.9573 3.76861V22.1195C87.9534 22.3521 87.9954 22.5832 88.081 22.7993C88.1665 23.0154 88.2937 23.2121 88.4553 23.378C88.6169 23.5439 88.8096 23.6757 89.0222 23.7656C89.2347 23.8556 89.4629 23.9019 89.6933 23.9019C89.9238 23.9019 90.152 23.8556 90.3645 23.7656C90.5771 23.6757 90.7698 23.5439 90.9313 23.378C91.0929 23.2121 91.2202 23.0154 91.3057 22.7993C91.3912 22.5832 91.4333 22.3521 91.4294 22.1195V6.75519L109.614 23.4243C109.933 23.7172 110.349 23.8794 110.781 23.8794H111.846C112.307 23.8794 112.748 23.6947 113.074 23.3659C113.4 23.0372 113.582 22.5913 113.582 22.1264V3.77553C113.582 3.31061 113.4 2.86474 113.074 2.53599C112.748 2.20724 112.307 2.02256 111.846 2.02256C111.386 2.02256 110.944 2.20724 110.618 2.53599C110.293 2.86474 110.11 3.31061 110.11 3.77553" fill="#3C3937"/>
<path d="M4.97129 39.2663H1.52073V36.1219H0V43.9154H1.52073V40.7487H4.97129V43.9154H6.49203V36.1219H4.97129V39.2663Z" fill="#3C3937"/>
<path d="M34.3176 37.2284C33.954 36.8602 33.5252 36.5639 33.0536 36.3549C32.5716 36.1454 32.0523 36.0374 31.5275 36.0374C31.0027 36.0374 30.4834 36.1454 30.0013 36.3549C29.5322 36.5626 29.1067 36.8591 28.7481 37.2284C28.3901 37.5966 28.1038 38.0293 27.904 38.5041C27.7008 38.9862 27.5972 39.5051 27.5997 40.029C27.5958 40.56 27.6994 41.0861 27.904 41.5753C28.3036 42.5296 29.056 43.289 30.0013 43.6923C30.485 43.8954 31.0036 43.9999 31.5275 43.9999C32.0513 43.9999 32.5699 43.8954 33.0536 43.6923C33.5245 43.4917 33.9535 43.2027 34.3176 42.8405C34.683 42.4792 34.9752 42.0494 35.1779 41.5753C35.3857 41.087 35.491 40.5605 35.4871 40.029C35.4895 39.5046 35.3843 38.9854 35.1779 38.5041C34.9737 38.0277 34.6818 37.5948 34.3176 37.2284ZM33.7356 40.998C33.6209 41.2912 33.4536 41.5605 33.2422 41.7924C33.0317 42.0236 32.7754 42.2075 32.4899 42.3323C32.2045 42.4572 31.8963 42.5201 31.5853 42.517C31.2656 42.5209 30.9485 42.4586 30.6536 42.334C30.3586 42.2094 30.0921 42.0251 29.8705 41.7924C29.4173 41.3202 29.1667 40.6866 29.1734 40.029C29.1701 39.6925 29.2306 39.3583 29.3517 39.0447C29.4661 38.7474 29.637 38.4755 29.8549 38.2444C30.0687 38.0172 30.3254 37.8354 30.6098 37.7097C31.0474 37.515 31.5339 37.4619 32.0025 37.5577C32.4711 37.6534 32.8989 37.8933 33.227 38.2444C33.557 38.6102 33.7794 39.0617 33.8693 39.5482C33.9591 40.0346 33.9128 40.5367 33.7356 40.998Z" fill="#3C3937"/>
<path d="M55.8047 37.6044H57.6086V43.9154H59.1293V37.6044H61.0072V36.1219H55.8047V37.6044Z" fill="#3C3937"/>
<path d="M83.5813 40.7487H86.8956V39.2663H83.5813V37.6044H87.3253V36.1219H82.0605V43.9154H87.4728V42.4325H83.5813V40.7487Z" fill="#3C3937"/>
<path d="M110.152 36.1219H108.631V43.9154H113.78V42.4325H110.152V36.1219Z" fill="#3C3937"/>
</svg>
